Coordinates
version=1
nRows=9
nColumns=24
inDegrees=yes

Units are S.I. units (second, meters, Newtons, ...)
Angles are in degrees.

endheader
time	pelvis_tilt	pelvis_list	pelvis_rotation	pelvis_tx	pelvis_ty	pelvis_tz	hip_flexion_r	hip_adduction_r	hip_rotation_r	knee_angle_r	ankle_angle_r	subtalar_angle_r	mtp_angle_r	hip_flexion_l	hip_adduction_l	hip_rotation_l	knee_angle_l	ankle_angle_l	subtalar_angle_l	mtp_angle_l	lumbar_extension	lumbar_bending	lumbar_rotation
      1.77933333	     -1.69759462	      4.01860767	     -9.07697130	      1.51453553	      1.01754141	      0.27100590	     18.96048166	     -6.12363217	      1.40070696	    -60.08663659	      4.66835826	    -11.57088316	      3.99413284	     12.73460763	      9.27652462	     -2.96507589	    -17.71701917	      9.30468304	    -10.09744860	      2.64309954	      4.05241932	     -6.43294240	      5.74261306
      1.78350000	     -1.66981710	      3.90275830	     -8.92709301	      1.51924029	      1.01836654	      0.27063440	     19.49426368	     -5.84776481	      1.46249802	    -59.56911400	      4.82178247	    -11.76843467	      3.93025217	     12.21983970	      9.22363383	     -2.93754536	    -17.37523567	      9.35640367	     -9.85956978	      2.58429113	      3.85940627	     -6.33192162	      5.46525743
      1.78766667	     -1.69635605	      3.85044752	     -8.80107483	      1.52398679	      1.01902557	      0.27027502	     20.10146996	     -5.63771420	      1.54708451	    -59.04387966	      4.97870357	    -11.83849404	      3.91936978	     11.76041645	      9.23531273	     -2.87684347	    -16.99511309	      9.38961983	     -9.71435434	      2.57368984	      3.81737186	     -6.30467831	      5.39925212
      1.79183333	     -1.65390647	      3.73718858	     -8.63787836	      1.52872021	      1.01977056	      0.26989494	     20.58572659	     -5.38555293	      1.56722341	    -58.44554433	      5.12831627	    -12.02440609	      3.85821794	     11.24127831	      9.18804701	     -2.84029354	    -16.67390543	      9.44399553	     -9.48028333	      2.52409608	      3.63651610	     -6.19491357	      5.08867108
      1.79600000	     -1.65834841	      3.66227100	     -8.47367189	      1.53343482	      1.02037936	      0.26951799	     21.12469117	     -5.17089031	      1.59868656	    -57.83134455	      5.21840499	    -12.13049209	      3.75726610	     10.77838197	      9.17628794	     -2.77906744	    -16.34275138	      9.53555306	     -9.27321093	      2.44770375	      3.53364475	     -6.13436249	      4.78526451
      1.80016667	     -1.67676244	      3.60548865	     -8.31675558	      1.53820400	      1.02088292	      0.26915464	     21.67467169	     -4.97411816	      1.64031227	    -57.20513243	      5.36180530	    -12.18328151	      3.73490745	     10.32888687	      9.18460198	     -2.69983736	    -16.00952075	      9.57003193	     -9.13602324	      2.43111338	      3.49308362	     -6.09360845	      4.71818747
      1.80433333	     -1.67778638	      3.50650857	     -8.12048775	      1.54289863	      1.02140360	      0.26876775	     22.16642258	     -4.74256867	      1.64206383	    -56.50836603	      5.43656219	    -12.27842910	      3.66806313	      9.88401546	      9.15095210	     -2.58120836	    -15.73438134	      9.64489656	     -8.97913148	      2.38751587	      3.34589815	     -6.01393977	      4.45453041
      1.80850000	     -1.69866165	      3.43628078	     -7.93426900	      1.54760503	      1.02182422	      0.26840373	     22.68113363	     -4.54100311	      1.65557867	    -55.80059424	      5.51171917	    -12.32765278	      3.60736701	      9.46201869	      9.14330955	     -2.46904530	    -15.45324287	      9.71455903	     -8.83493347	      2.34955224	      3.26773611	     -5.96403015	      4.24174401
      1.81266667	     -1.71425051	      3.37566282	     -7.73467339	      1.55227262	      1.02219031	      0.26802563	     23.18271364	     -4.35924348	      1.66010382	    -55.07028286	      5.57635336	    -12.35070302	      3.54462573	      9.04749268	      9.14755536	     -2.33191395	    -15.18432878	      9.78876986	     -8.71205179	      2.31077715	      3.17587877	     -5.92876251	      4.03701252
